<mxfile host="Electron" modified="2024-05-02T13:45:07.405Z" agent="Mozilla/5.0 (Windows NT 10.0; Win64; x64) AppleWebKit/537.36 (KHTML, like Gecko) draw.io/24.2.5 Chrome/120.0.6099.109 Electron/28.1.0 Safari/537.36" etag="-rKMXydClvznn1CQzdiH" version="24.2.5" type="device">
  <diagram name="Page-1" id="4Ndmw-logPdZSPS9MoNB">
    <mxGraphModel dx="1050" dy="621" grid="1" gridSize="10" guides="1" tooltips="1" connect="1" arrows="1" fold="1" page="1" pageScale="1" pageWidth="850" pageHeight="1100" math="0" shadow="0">
      <root>
        <mxCell id="0" />
        <mxCell id="1" parent="0" />
        <mxCell id="e80_2wr0B1dOKdNr4SLD-2" value="" style="rounded=1;whiteSpace=wrap;html=1;direction=south;" parent="1" vertex="1">
          <mxGeometry x="280" y="40" width="420" height="560" as="geometry" />
        </mxCell>
        <mxCell id="clfFaBZUKB0PFZcEj4ga-16" style="rounded=0;orthogonalLoop=1;jettySize=auto;html=1;exitX=0.5;exitY=0.5;exitDx=0;exitDy=0;exitPerimeter=0;entryX=0;entryY=0.5;entryDx=0;entryDy=0;" edge="1" parent="1" source="e80_2wr0B1dOKdNr4SLD-3" target="clfFaBZUKB0PFZcEj4ga-1">
          <mxGeometry relative="1" as="geometry" />
        </mxCell>
        <mxCell id="clfFaBZUKB0PFZcEj4ga-18" style="rounded=0;orthogonalLoop=1;jettySize=auto;html=1;exitX=0.5;exitY=0.5;exitDx=0;exitDy=0;exitPerimeter=0;entryX=0;entryY=0.5;entryDx=0;entryDy=0;" edge="1" parent="1" source="e80_2wr0B1dOKdNr4SLD-3" target="clfFaBZUKB0PFZcEj4ga-5">
          <mxGeometry relative="1" as="geometry" />
        </mxCell>
        <mxCell id="clfFaBZUKB0PFZcEj4ga-19" style="rounded=0;orthogonalLoop=1;jettySize=auto;html=1;exitX=0.5;exitY=0.5;exitDx=0;exitDy=0;exitPerimeter=0;entryX=0;entryY=0.5;entryDx=0;entryDy=0;" edge="1" parent="1" source="e80_2wr0B1dOKdNr4SLD-3" target="clfFaBZUKB0PFZcEj4ga-6">
          <mxGeometry relative="1" as="geometry" />
        </mxCell>
        <mxCell id="clfFaBZUKB0PFZcEj4ga-23" style="rounded=0;orthogonalLoop=1;jettySize=auto;html=1;exitX=0.5;exitY=0.5;exitDx=0;exitDy=0;exitPerimeter=0;entryX=0;entryY=0.5;entryDx=0;entryDy=0;" edge="1" parent="1" source="e80_2wr0B1dOKdNr4SLD-3" target="clfFaBZUKB0PFZcEj4ga-4">
          <mxGeometry relative="1" as="geometry" />
        </mxCell>
        <mxCell id="clfFaBZUKB0PFZcEj4ga-33" style="rounded=0;orthogonalLoop=1;jettySize=auto;html=1;exitX=0.5;exitY=0.5;exitDx=0;exitDy=0;exitPerimeter=0;entryX=0;entryY=0.5;entryDx=0;entryDy=0;" edge="1" parent="1" source="e80_2wr0B1dOKdNr4SLD-3" target="clfFaBZUKB0PFZcEj4ga-32">
          <mxGeometry relative="1" as="geometry">
            <Array as="points">
              <mxPoint x="270" y="300" />
            </Array>
          </mxGeometry>
        </mxCell>
        <mxCell id="e80_2wr0B1dOKdNr4SLD-3" value="Vehicle Owner" style="shape=umlActor;verticalLabelPosition=bottom;verticalAlign=top;html=1;outlineConnect=0;" parent="1" vertex="1">
          <mxGeometry x="110" y="170" width="70" height="100" as="geometry" />
        </mxCell>
        <mxCell id="clfFaBZUKB0PFZcEj4ga-28" style="rounded=0;orthogonalLoop=1;jettySize=auto;html=1;exitX=0.5;exitY=0.5;exitDx=0;exitDy=0;exitPerimeter=0;entryX=1;entryY=0.5;entryDx=0;entryDy=0;" edge="1" parent="1" source="e80_2wr0B1dOKdNr4SLD-4" target="clfFaBZUKB0PFZcEj4ga-7">
          <mxGeometry relative="1" as="geometry" />
        </mxCell>
        <mxCell id="clfFaBZUKB0PFZcEj4ga-29" style="rounded=0;orthogonalLoop=1;jettySize=auto;html=1;exitX=0.5;exitY=0.5;exitDx=0;exitDy=0;exitPerimeter=0;entryX=1;entryY=0.5;entryDx=0;entryDy=0;" edge="1" parent="1" source="e80_2wr0B1dOKdNr4SLD-4" target="clfFaBZUKB0PFZcEj4ga-8">
          <mxGeometry relative="1" as="geometry" />
        </mxCell>
        <mxCell id="clfFaBZUKB0PFZcEj4ga-30" style="rounded=0;orthogonalLoop=1;jettySize=auto;html=1;exitX=0.5;exitY=0.5;exitDx=0;exitDy=0;exitPerimeter=0;entryX=1;entryY=0.5;entryDx=0;entryDy=0;" edge="1" parent="1" source="e80_2wr0B1dOKdNr4SLD-4" target="clfFaBZUKB0PFZcEj4ga-9">
          <mxGeometry relative="1" as="geometry" />
        </mxCell>
        <mxCell id="clfFaBZUKB0PFZcEj4ga-31" style="rounded=0;orthogonalLoop=1;jettySize=auto;html=1;exitX=0.5;exitY=0.5;exitDx=0;exitDy=0;exitPerimeter=0;entryX=1;entryY=0.5;entryDx=0;entryDy=0;" edge="1" parent="1" source="e80_2wr0B1dOKdNr4SLD-4" target="clfFaBZUKB0PFZcEj4ga-15">
          <mxGeometry relative="1" as="geometry" />
        </mxCell>
        <mxCell id="clfFaBZUKB0PFZcEj4ga-36" style="rounded=0;orthogonalLoop=1;jettySize=auto;html=1;exitX=0.5;exitY=0.5;exitDx=0;exitDy=0;exitPerimeter=0;entryX=1;entryY=0.5;entryDx=0;entryDy=0;" edge="1" parent="1" source="e80_2wr0B1dOKdNr4SLD-4" target="clfFaBZUKB0PFZcEj4ga-32">
          <mxGeometry relative="1" as="geometry">
            <Array as="points">
              <mxPoint x="670" y="295" />
            </Array>
          </mxGeometry>
        </mxCell>
        <mxCell id="e80_2wr0B1dOKdNr4SLD-4" value="Parking Manager" style="shape=umlActor;verticalLabelPosition=bottom;verticalAlign=top;html=1;outlineConnect=0;" parent="1" vertex="1">
          <mxGeometry x="730" y="170" width="70" height="110" as="geometry" />
        </mxCell>
        <mxCell id="clfFaBZUKB0PFZcEj4ga-25" style="rounded=0;orthogonalLoop=1;jettySize=auto;html=1;exitX=0.5;exitY=0.5;exitDx=0;exitDy=0;exitPerimeter=0;entryX=0;entryY=0.5;entryDx=0;entryDy=0;" edge="1" parent="1" source="e80_2wr0B1dOKdNr4SLD-10" target="clfFaBZUKB0PFZcEj4ga-11">
          <mxGeometry relative="1" as="geometry" />
        </mxCell>
        <mxCell id="clfFaBZUKB0PFZcEj4ga-26" style="rounded=0;orthogonalLoop=1;jettySize=auto;html=1;exitX=0.5;exitY=0.5;exitDx=0;exitDy=0;exitPerimeter=0;entryX=0;entryY=0.5;entryDx=0;entryDy=0;" edge="1" parent="1" source="e80_2wr0B1dOKdNr4SLD-10" target="clfFaBZUKB0PFZcEj4ga-12">
          <mxGeometry relative="1" as="geometry" />
        </mxCell>
        <mxCell id="clfFaBZUKB0PFZcEj4ga-27" style="edgeStyle=orthogonalEdgeStyle;rounded=0;orthogonalLoop=1;jettySize=auto;html=1;exitX=0.5;exitY=0.5;exitDx=0;exitDy=0;exitPerimeter=0;entryX=0;entryY=0.5;entryDx=0;entryDy=0;" edge="1" parent="1" source="e80_2wr0B1dOKdNr4SLD-10" target="clfFaBZUKB0PFZcEj4ga-13">
          <mxGeometry relative="1" as="geometry" />
        </mxCell>
        <mxCell id="clfFaBZUKB0PFZcEj4ga-37" style="rounded=0;orthogonalLoop=1;jettySize=auto;html=1;exitX=0.5;exitY=0.5;exitDx=0;exitDy=0;exitPerimeter=0;entryX=0.06;entryY=0.696;entryDx=0;entryDy=0;entryPerimeter=0;" edge="1" parent="1" source="e80_2wr0B1dOKdNr4SLD-10" target="clfFaBZUKB0PFZcEj4ga-32">
          <mxGeometry relative="1" as="geometry" />
        </mxCell>
        <mxCell id="e80_2wr0B1dOKdNr4SLD-10" value="Admin" style="shape=umlActor;verticalLabelPosition=bottom;verticalAlign=top;html=1;outlineConnect=0;" parent="1" vertex="1">
          <mxGeometry x="120" y="390" width="70" height="100" as="geometry" />
        </mxCell>
        <mxCell id="clfFaBZUKB0PFZcEj4ga-1" value="Grant access to location" style="ellipse;whiteSpace=wrap;html=1;" vertex="1" parent="1">
          <mxGeometry x="300" y="60" width="100" height="40" as="geometry" />
        </mxCell>
        <mxCell id="clfFaBZUKB0PFZcEj4ga-2" value="Get directions to thr nearest psrking lot" style="ellipse;whiteSpace=wrap;html=1;" vertex="1" parent="1">
          <mxGeometry x="300" y="150" width="120" height="50" as="geometry" />
        </mxCell>
        <mxCell id="clfFaBZUKB0PFZcEj4ga-4" value="Select an available parking space" style="ellipse;whiteSpace=wrap;html=1;" vertex="1" parent="1">
          <mxGeometry x="390" y="100" width="120" height="50" as="geometry" />
        </mxCell>
        <mxCell id="clfFaBZUKB0PFZcEj4ga-5" value="Park in selected parking space" style="ellipse;whiteSpace=wrap;html=1;" vertex="1" parent="1">
          <mxGeometry x="400" y="190" width="120" height="50" as="geometry" />
        </mxCell>
        <mxCell id="clfFaBZUKB0PFZcEj4ga-6" value="Pay for sselected parking space" style="ellipse;whiteSpace=wrap;html=1;" vertex="1" parent="1">
          <mxGeometry x="310" y="250" width="120" height="50" as="geometry" />
        </mxCell>
        <mxCell id="clfFaBZUKB0PFZcEj4ga-7" value="Add/remove parking spaces" style="ellipse;whiteSpace=wrap;html=1;" vertex="1" parent="1">
          <mxGeometry x="540" y="80" width="120" height="60" as="geometry" />
        </mxCell>
        <mxCell id="clfFaBZUKB0PFZcEj4ga-8" value="Block parking spaces" style="ellipse;whiteSpace=wrap;html=1;" vertex="1" parent="1">
          <mxGeometry x="540" y="170" width="120" height="50" as="geometry" />
        </mxCell>
        <mxCell id="clfFaBZUKB0PFZcEj4ga-9" value="Order towing service" style="ellipse;whiteSpace=wrap;html=1;" vertex="1" parent="1">
          <mxGeometry x="540" y="240" width="120" height="50" as="geometry" />
        </mxCell>
        <mxCell id="clfFaBZUKB0PFZcEj4ga-10" value="Add/Remove parking lots" style="ellipse;whiteSpace=wrap;html=1;" vertex="1" parent="1">
          <mxGeometry x="310" y="360" width="120" height="50" as="geometry" />
        </mxCell>
        <mxCell id="clfFaBZUKB0PFZcEj4ga-11" value="Add/Remove parking managers" style="ellipse;whiteSpace=wrap;html=1;" vertex="1" parent="1">
          <mxGeometry x="310" y="450" width="120" height="50" as="geometry" />
        </mxCell>
        <mxCell id="clfFaBZUKB0PFZcEj4ga-12" value="Ban Users" style="ellipse;whiteSpace=wrap;html=1;" vertex="1" parent="1">
          <mxGeometry x="320" y="520" width="120" height="60" as="geometry" />
        </mxCell>
        <mxCell id="clfFaBZUKB0PFZcEj4ga-13" value="View statistics of all&amp;nbsp; parking lots" style="ellipse;whiteSpace=wrap;html=1;" vertex="1" parent="1">
          <mxGeometry x="440" y="415" width="120" height="50" as="geometry" />
        </mxCell>
        <mxCell id="clfFaBZUKB0PFZcEj4ga-14" value="View History" style="ellipse;whiteSpace=wrap;html=1;" vertex="1" parent="1">
          <mxGeometry x="430" y="330" width="120" height="50" as="geometry" />
        </mxCell>
        <mxCell id="clfFaBZUKB0PFZcEj4ga-15" value="View statistics of their parking lot" style="ellipse;whiteSpace=wrap;html=1;" vertex="1" parent="1">
          <mxGeometry x="570" y="350" width="120" height="60" as="geometry" />
        </mxCell>
        <mxCell id="clfFaBZUKB0PFZcEj4ga-17" style="rounded=0;orthogonalLoop=1;jettySize=auto;html=1;exitX=0.5;exitY=0.5;exitDx=0;exitDy=0;exitPerimeter=0;entryX=0.037;entryY=0.648;entryDx=0;entryDy=0;entryPerimeter=0;" edge="1" parent="1" source="e80_2wr0B1dOKdNr4SLD-3" target="clfFaBZUKB0PFZcEj4ga-2">
          <mxGeometry relative="1" as="geometry" />
        </mxCell>
        <mxCell id="clfFaBZUKB0PFZcEj4ga-22" style="rounded=0;orthogonalLoop=1;jettySize=auto;html=1;exitX=0.5;exitY=0.5;exitDx=0;exitDy=0;exitPerimeter=0;" edge="1" parent="1" source="e80_2wr0B1dOKdNr4SLD-3">
          <mxGeometry relative="1" as="geometry">
            <mxPoint x="440" y="350" as="targetPoint" />
          </mxGeometry>
        </mxCell>
        <mxCell id="clfFaBZUKB0PFZcEj4ga-24" style="rounded=0;orthogonalLoop=1;jettySize=auto;html=1;exitX=0.5;exitY=0.5;exitDx=0;exitDy=0;exitPerimeter=0;entryX=0.007;entryY=0.72;entryDx=0;entryDy=0;entryPerimeter=0;" edge="1" parent="1" source="e80_2wr0B1dOKdNr4SLD-10" target="clfFaBZUKB0PFZcEj4ga-10">
          <mxGeometry relative="1" as="geometry" />
        </mxCell>
        <mxCell id="clfFaBZUKB0PFZcEj4ga-32" value="Log In/Sign Up" style="ellipse;whiteSpace=wrap;html=1;" vertex="1" parent="1">
          <mxGeometry x="440" y="270" width="100" height="50" as="geometry" />
        </mxCell>
      </root>
    </mxGraphModel>
  </diagram>
</mxfile>
